<?xml version="1.0" encoding="UTF-8"?><svg id="Layer_2" xmlns="http://www.w3.org/2000/svg" viewBox="0 0 263.16 77.28"><defs><style>.cls-1{fill:#9a1914;}</style></defs><g id="Layer_1-2"><g><g><path class="cls-1" d="m91.52,65.58c-.42-.34-.66-1.25-.27-1.67.53-.63,1.03-.55,1.72-.13.69.41,1.46.65,2.56.65.87,0,1.48-.39,1.48-1.09,0-.5-.31-.84-1.27-1.22-.82-.31-1.99-.86-3.09-1.58-.8-.52-1.13-.99-1.13-2.17,0-1.38,1.45-2.99,3.91-2.99,1.93,0,2.91.58,3.59,1.61.42.62.21,1.17-.23,1.49-.37.28-1,.26-1.45-.23-.55-.62-.9-.94-1.83-.94-1,0-1.59.41-1.59,1.01,0,.26.23.62,1.06,1.06.64.34,1.95.88,2.69,1.25,1.19.6,1.8,1.43,1.8,2.55,0,1.75-1.01,3.54-4.12,3.54-1.71,0-3.04-.5-3.83-1.14Z"/><path class="cls-1" d="m105,63.83c-.13-1.74-.14-3.67-.14-4.63s.32-1.67,1.22-1.67c.68,0,1.13.67,1.13,1.33,0,.47-.05,3.25-.05,3.75,0,1.3.58,1.92,1.64,1.92s1.56-.73,1.56-1.93v-3.59c0-1.25.59-1.48,1.25-1.48s1.03.49,1.05,1.27c.03.78-.02,1.58-.02,4.19,0,2.27-1.62,3.69-3.78,3.69-2.35,0-3.73-1.1-3.86-2.84Z"/><path class="cls-1" d="m118.83,64.98c0-.96-.08-4.17.06-5.97.03-.52.11-.84.5-.96,1.32-.39,2.67-.58,3.44-.58s2.08.18,2.9.84c.63.5.98,1.54.98,3.49s.05,2.73.02,3.51-.35,1.25-1.03,1.25-1.35-.23-1.35-1.87-.03-2.61-.03-3.28c0-1.2-.16-1.72-1.51-1.72-1.25,0-1.53.29-1.61.71-.06.36-.1.65-.1,1.35,0,.52.08,3.1.08,3.59,0,.67-.47,1.33-1.25,1.33s-1.09-.73-1.09-1.69Z"/><path class="cls-1" d="m133.14,69.23c-.51-.34-.4-1.06-.06-1.49.29-.36.72-.65,1.48-.23.53.29,1.46.52,2.45.52.58,0,1-.31,1-1.22v-.89c-.43.16-.63.29-1.4.28-2.86-.1-4.36-1.41-4.36-3.65,0-1.69.61-2.97,1.27-3.75.67-.78,1.79-1.12,3.1-1.12.58,0,.9.08,1.51.24.43.11.68.02,1.05.02.64,0,1,.47,1,.96,0,2.37,0,6.9-.02,7.87-.05,2.16-1.03,3.44-3.26,3.44-1.54,0-2.75-.29-3.75-.97Zm3.55-5.08c.71,0,.92-.06,1.3-.28,0-1.3.02-2.68.02-3.85-.58-.18-1-.24-1.37-.24-1.53,0-2.07.99-2.07,2.27,0,1.38.66,2.09,2.12,2.09Z"/><path class="cls-1" d="m147.14,65.34c-.42-1.12-1.58-5.37-1.79-6.4-.11-.62.03-1.25.85-1.43.82-.2,1.3.23,1.51,1.2.21,1.05.85,3.64,1.12,4.76.05.19.11.26.21.03.87-2.21,1.33-3.82,1.83-5.21.13-.37.56-.71.98-.71s.76.08,1.03.91c.34.99,1.08,3.69,1.56,4.98.08.21.19.36.29.02.61-2.05,1.01-3.75,1.22-4.69.24-1.06.74-1.35,1.37-1.25.69.13.92.62.69,1.61-.29,1.35-1.32,4.77-1.85,6.22-.27.71-.84,1.23-1.43,1.23s-1.19-.23-1.58-.97c-.48-.93-.9-2.08-1.25-3.34-.06-.24-.14-.19-.19-.02-.4,1.35-.76,2.42-1.25,3.47-.29.6-.82.93-1.51.93s-1.4-.19-1.82-1.33Z"/><path class="cls-1" d="m162.8,62.17c0-2.78,1.74-4.72,4.34-4.72,2.44,0,4.23,1.33,4.23,4.74,0,2.55-1.33,4.56-4.23,4.56-2.27,0-4.34-1.3-4.34-4.58Zm4.36,2.4c1.48,0,2.06-1.22,2.06-2.42,0-1.85-.92-2.56-2.11-2.56-1.42,0-2.06,1.1-2.06,2.53s.82,2.45,2.11,2.45Z"/><path class="cls-1" d="m177.06,64.98c0-.96-.08-4.17.06-5.97.03-.52.11-.84.5-.96,1.32-.39,2.67-.58,3.44-.58s2.08.18,2.9.84c.63.5.98,1.54.98,3.49s.05,2.73.02,3.51-.35,1.25-1.03,1.25-1.35-.23-1.35-1.87-.03-2.61-.03-3.28c0-1.2-.16-1.72-1.51-1.72-1.25,0-1.53.29-1.61.71-.06.36-.1.65-.1,1.35,0,.52.08,3.1.08,3.59,0,.67-.47,1.33-1.25,1.33s-1.09-.73-1.09-1.69Z"/><path class="cls-1" d="m191.1,65.32c-.02-1.46-.02-8.47-.02-8.98s.26-.68.79-.71c1.06-.06,4.78,0,5.68.08.56.05.87.54.87.93s-.34,1.04-1.08,1.02c-1.14-.03-3.31-.15-3.83-.1-.22.02-.31.08-.31.28,0,.24.02,1.12.02,1.64,0,.24.08.33.37.33l3.2.02c.68,0,1.03.49,1.04.93.02.49-.35,1.04-1.09,1.04-.69,0-2.73,0-3.14.03-.29.03-.34.21-.34.52,0,.23-.05,2.27-.05,2.96,0,.81-.51,1.27-1.22,1.27-.64,0-.88-.2-.9-1.23Z"/><path class="cls-1" d="m204.01,65.55c0-2.06,0-8.78.02-9.63.02-.96.34-1.4,1.16-1.4.71,0,1.13.47,1.13,1.38l-.02,9.56c0,.58-.45,1.22-1.09,1.25-.69.05-1.19-.36-1.19-1.17Z"/><path class="cls-1" d="m212.3,62.17c0-2.78,1.74-4.72,4.34-4.72,2.44,0,4.23,1.33,4.23,4.74,0,2.55-1.33,4.56-4.23,4.56-2.27,0-4.34-1.3-4.34-4.58Zm4.36,2.4c1.48,0,2.06-1.22,2.06-2.42,0-1.85-.92-2.56-2.11-2.56-1.42,0-2.06,1.1-2.06,2.53s.82,2.45,2.11,2.45Z"/><path class="cls-1" d="m227.34,65.34c-.42-1.12-1.58-5.37-1.79-6.4-.11-.62.03-1.25.85-1.43.82-.2,1.3.23,1.51,1.2.21,1.05.85,3.64,1.12,4.76.05.19.11.26.21.03.87-2.21,1.33-3.82,1.83-5.21.13-.37.56-.71.98-.71s.76.08,1.03.91c.34.99,1.08,3.69,1.56,4.98.08.21.19.36.29.02.61-2.05,1.01-3.75,1.22-4.69.24-1.06.74-1.35,1.37-1.25.69.13.92.62.69,1.61-.29,1.35-1.32,4.77-1.85,6.22-.27.71-.84,1.23-1.43,1.23s-1.19-.23-1.58-.97c-.48-.93-.9-2.08-1.25-3.34-.06-.24-.14-.19-.19-.02-.4,1.35-.76,2.42-1.25,3.47-.29.6-.82.93-1.51.93s-1.4-.19-1.82-1.33Z"/><path class="cls-1" d="m243,62.17c0-2.84,1.96-4.74,4.28-4.74s3.68,1.51,3.68,3.2c0,1.3-.59,2.06-2.07,2.11-1.13.05-2.17.05-3.65,0,.18,1.25.9,1.88,2.4,1.88,1.01,0,1.59-.42,1.91-.73.42-.39.88-.37,1.32.18.29.37.24,1.01-.34,1.54-.58.55-1.4,1.07-2.67,1.07-2.12,0-4.86-.46-4.86-4.51Zm5.6-1.28c.32-.03.23-.67-.03-.93-.27-.28-.59-.5-1.25-.54-.64-.03-1.11.11-1.59.62-.22.23-.35.52-.43.91,1.48.03,2.54.02,3.31-.06Z"/><path class="cls-1" d="m256.69,65.71c0-2.06.02-6.15.02-6.74.02-1.27.51-1.64,1.16-1.64.56,0,.96.28,1.11.91.71-.47,1.25-.68,1.96-.68.85,0,1.53.41,2.03,1.41.3.6.21,1.15-.19,1.38-.39.24-.77.29-1.14-.1-.29-.28-.47-.47-1.19-.47-.51,0-.96.21-1.4.62,0,1.8-.02,3.57-.02,5.18,0,.84-.64,1.28-1.17,1.32-.51.03-1.16-.37-1.16-1.19Z"/></g><g><path class="cls-1" d="m96.88,16.71c0-.75.15-1.27.45-1.6.3-.3.82-.48,1.64-.48h3.28c.78,0,1.34.19,1.64.48.3.34.45.86.45,1.6v2.98c0,2.31-.49,4.4-1.38,6.26.37.71.86,1.19,1.49,1.42.6.26,1.23.26,1.94.04.49-.15.89-.3,1.27-.41.33-.08.75-.11,1.19-.11.97,0,1.75.3,2.42.82.6.56.93,1.34.93,2.39,0,.89-.33,1.64-1.01,2.24-.71.63-1.75.93-3.17.93-.82,0-1.57-.11-2.24-.37-.75-.22-1.38-.52-1.98-.97-.6-.37-1.16-.86-1.6-1.45-.49-.56-.86-1.19-1.12-1.86-1.19,1.27-2.61,2.31-4.32,3.06-1.75.78-3.77,1.31-6.04,1.57-.6.07-.97-.08-1.12-.45l-.3-.67c-.22-.48-.04-.86.56-1.16,2.39-1.01,4.14-2.42,5.29-4.21,1.12-1.75,1.71-4.06,1.71-6.97v-3.06Zm25.91,24.87c0,1.12-.3,2.05-.82,2.87-.6.78-1.49,1.45-2.72,1.98-1.27.52-2.91.89-4.88,1.16-2.01.22-4.4.37-7.23.37s-5.26-.15-7.23-.37c-2.01-.26-3.62-.63-4.85-1.16-1.27-.52-2.2-1.19-2.72-1.98-.6-.82-.86-1.75-.86-2.87s.26-2.05.86-2.87c.52-.78,1.45-1.45,2.72-1.98,1.23-.52,2.83-.89,4.85-1.16,1.98-.22,4.4-.37,7.23-.37s5.22.15,7.23.37c1.98.26,3.62.63,4.88,1.16,1.23.52,2.12,1.19,2.72,1.98.52.82.82,1.79.82,2.87Zm-23.71,0c0,.63.11,1.19.41,1.64.22.45.67.86,1.3,1.19.6.3,1.45.52,2.5.71,1.01.15,2.27.22,3.84.22s2.83-.07,3.88-.22c1.01-.19,1.83-.41,2.46-.71.6-.33,1.04-.75,1.34-1.19.22-.45.37-1.01.37-1.64,0-.6-.15-1.16-.37-1.64-.3-.45-.75-.86-1.34-1.19-.63-.3-1.45-.52-2.46-.71-1.04-.15-2.35-.22-3.88-.22s-2.83.07-3.84.22c-1.04.19-1.9.41-2.5.71-.63.33-1.08.75-1.3,1.19-.3.48-.41,1.04-.41,1.64Zm23.15-9.69c0,.75-.15,1.3-.45,1.6-.3.33-.86.48-1.64.48h-3.43c-.82,0-1.34-.15-1.64-.48-.3-.3-.45-.86-.45-1.6v-8.09h-6.9c-.37,0-.6-.04-.67-.19-.15-.11-.19-.3-.19-.6v-1.04c0-.26.04-.45.19-.6.08-.11.3-.19.67-.19h6.9v-4.47c0-.75.15-1.27.45-1.6.3-.3.82-.48,1.64-.48h3.43c.78,0,1.34.19,1.64.48.3.34.45.86.45,1.6v15.17Z"/><path class="cls-1" d="m134.35,43.22c0,.56.11.93.37,1.12.22.15.6.22,1.12.22h20.95c.33,0,.56.04.71.19.08.11.15.3.15.6v1.04c0,.26-.07.45-.15.6-.15.11-.37.19-.71.19h-25.35c-1.79,0-2.98-.33-3.65-1.01-.71-.71-1.04-1.83-1.04-3.39v-3.39c0-.75.15-1.27.45-1.6.3-.3.82-.48,1.64-.48h3.43c.22,0,.45.04.71.07v-3.02h-7.57c-.33,0-.56-.04-.67-.19-.15-.08-.19-.3-.19-.6v-1.04c0-.3.04-.48.19-.63.11-.08.34-.15.67-.15h22.37c.3,0,.52.07.67.15.11.15.19.33.19.63v1.04c0,.3-.07.52-.19.6-.15.15-.37.19-.67.19h-7.2v2.57c0,.75-.15,1.3-.45,1.6-.3.33-.86.48-1.64.48h-3.8c-.15,0-.26,0-.37-.04,0,.08.04.22.04.41v3.84Zm2.24-28.96c3.21,0,5.7.56,7.42,1.68,1.71,1.16,2.68,2.76,2.98,4.77h3.06v-3.99c0-.75.15-1.27.45-1.6.3-.3.82-.48,1.64-.48h3.43c.78,0,1.34.19,1.64.48.3.34.45.86.45,1.6v19.8c0,.75-.15,1.3-.45,1.6-.3.33-.86.48-1.64.48h-3.43c-.82,0-1.34-.15-1.64-.48-.3-.3-.45-.86-.45-1.6v-13.2h-3.13c-.37,1.94-1.38,3.39-3.09,4.44-1.71,1.04-4.14,1.57-7.23,1.57-3.5,0-6.15-.63-7.87-1.98-1.75-1.3-2.61-3.17-2.61-5.55s.86-4.21,2.61-5.55c1.71-1.3,4.36-1.98,7.87-1.98Zm0,12.45c.93,0,1.64-.37,2.16-1.19.45-.75.71-2.01.71-3.73s-.26-2.98-.71-3.77c-.52-.75-1.23-1.16-2.16-1.16s-1.68.41-2.12,1.16c-.52.82-.75,2.05-.75,3.77s.22,2.98.75,3.73c.45.82,1.16,1.19,2.12,1.19Z"/><path class="cls-1" d="m193.14,28.57c.3,0,.52.07.67.15.11.15.19.33.19.63v1.04c0,.3-.08.52-.19.6-.15.15-.37.19-.67.19h-31.95c-.33,0-.56-.04-.67-.19-.15-.07-.19-.3-.19-.6v-1.04c0-.3.04-.49.19-.63.11-.08.34-.15.67-.15h31.95Zm-1.68-13.57c.33,0,.56.08.71.19.08.15.15.33.15.6v1.04c0,.3-.07.49-.15.6-.15.15-.37.19-.71.19h-3.06v6h3.24c.34,0,.56.08.71.19.07.15.15.33.15.6v1.04c0,.3-.08.49-.15.6-.15.15-.37.19-.71.19h-28.93c-.37,0-.6-.04-.67-.19-.15-.11-.19-.3-.19-.6v-1.04c0-.26.04-.45.19-.6.07-.11.3-.19.67-.19h3.24v-6h-3.06c-.37,0-.6-.04-.67-.19-.15-.11-.19-.3-.19-.6v-1.04c0-.26.04-.45.19-.6.08-.11.3-.19.67-.19h28.56Zm-.37,29.56c.33,0,.56.04.71.19.08.11.15.3.15.6v1.04c0,.26-.07.45-.15.6-.15.11-.37.19-.71.19h-24.79c-.82,0-1.45-.07-1.94-.19-.52-.15-.93-.34-1.23-.6-.3-.3-.52-.67-.6-1.12-.15-.49-.19-1.08-.19-1.75v-2.31c0-.75.15-1.27.45-1.6.3-.3.82-.48,1.64-.48h18.94c.41,0,.67-.07.82-.22.07-.11.15-.37.15-.75v-.86c0-.37-.07-.63-.15-.78-.15-.11-.41-.19-.82-.19h-20.17c-.37,0-.6-.04-.67-.19-.15-.11-.19-.3-.19-.6v-1.04c0-.26.04-.45.19-.6.07-.11.3-.19.67-.19h26.65c.78,0,1.34.19,1.64.48.3.34.45.86.45,1.6v3.84c0,.75-.15,1.3-.45,1.6-.3.34-.86.48-1.64.48h-18.94c-.45,0-.71.08-.78.19-.15.15-.19.41-.19.78v.89c0,.37.04.63.19.78.07.11.33.19.78.19h20.17Zm-17.52-20.95h7.23v-6h-7.23v6Z"/><path class="cls-1" d="m203.85,31.4c-.45,0-.71.08-.86.22-.19.19-.26.48-.26.93v8.57c0,.6.11.97.37,1.19.22.22.67.33,1.34.33.82,0,1.64-.11,2.5-.33.82-.22,1.68-.48,2.53-.86.82-.33,1.64-.71,2.46-1.16.75-.41,1.49-.82,2.16-1.27.3-.19.56-.3.75-.3.15.04.3.15.45.33l.56.71c.22.37.19.67-.11.97-.89.75-1.9,1.49-3.02,2.2-1.19.71-2.42,1.38-3.73,1.98-1.34.56-2.76,1.01-4.17,1.38-1.49.33-2.95.52-4.36.52-1.75,0-3.06-.41-3.95-1.16-.93-.82-1.38-1.98-1.38-3.47v-11.33c0-.75.15-1.3.45-1.64.3-.3.82-.45,1.6-.45h8.87c.41,0,.71-.07.9-.26.15-.15.22-.45.22-.89v-8.87c0-.45-.08-.75-.22-.93-.19-.15-.49-.22-.9-.22h-9.69c-.33,0-.56-.04-.67-.19-.15-.08-.19-.3-.19-.6v-1.04c0-.3.04-.48.19-.63.11-.07.33-.15.67-.15h16.37c.75,0,1.3.15,1.6.45.3.33.45.89.45,1.64v12.23c0,.78-.15,1.3-.45,1.6-.3.33-.86.48-1.6.48h-8.87Zm25.87-1.86c.33,0,.56.08.71.19.08.15.15.33.15.6v1.04c0,.3-.07.48-.15.6-.15.15-.37.19-.71.19h-3.84v12.97c0,.75-.15,1.27-.45,1.6-.3.3-.86.48-1.64.48h-3.43c-.82,0-1.34-.19-1.64-.48-.3-.34-.45-.86-.45-1.6v-28.41c0-.75.15-1.27.45-1.6.3-.3.82-.48,1.64-.48h3.43c.78,0,1.34.19,1.64.48.3.34.45.86.45,1.6v12.82h3.84Z"/><path class="cls-1" d="m253.28,34.16c.3,0,.52.07.67.15.11.15.19.34.19.63v1.04c0,.3-.07.52-.19.6-.15.15-.37.19-.67.19h-7.38v8.35c0,.75-.15,1.27-.45,1.6-.3.3-.86.48-1.64.48h-3.43c-.82,0-1.34-.19-1.64-.48-.3-.34-.45-.86-.45-1.6v-8.35h-7.38c-.33,0-.56-.04-.67-.19-.15-.07-.19-.3-.19-.6v-1.04c0-.3.04-.49.19-.63.11-.07.34-.15.67-.15h22.37Zm-11.18-19.91c3.39,0,6,.71,7.79,2.12,1.79,1.42,2.68,3.62,2.68,6.52s-.89,5.11-2.68,6.52c-1.79,1.42-4.4,2.12-7.79,2.12s-6-.71-7.79-2.12c-1.79-1.42-2.68-3.58-2.68-6.52s.89-5.11,2.68-6.52c1.79-1.42,4.36-2.12,7.79-2.12Zm0,14.69c.97,0,1.68-.45,2.16-1.34.45-.89.71-2.46.71-4.7s-.26-3.8-.71-4.7c-.52-.89-1.23-1.34-2.16-1.34s-1.68.45-2.12,1.34c-.52.89-.75,2.46-.75,4.7s.22,3.8.75,4.7c.45.89,1.16,1.34,2.12,1.34Zm21.06,16.18c0,.75-.15,1.27-.45,1.6-.3.3-.86.48-1.64.48h-3.43c-.82,0-1.34-.19-1.64-.48-.3-.34-.45-.86-.45-1.6v-2.57h-6.11c-.37,0-.6-.04-.67-.19-.15-.11-.19-.3-.19-.6v-1.04c0-.26.04-.45.19-.6.07-.11.3-.19.67-.19h6.11v-23.22c0-.75.15-1.27.45-1.6.3-.3.82-.48,1.64-.48h3.43c.78,0,1.34.19,1.64.48.3.34.45.86.45,1.6v28.41Z"/></g><g><g><g><path class="cls-1" d="m33.91,47c-.36,0-.73-.12-1.03-.35-.31-.24-7.53-5.92-7.53-15.41,0-9.33,5.94-15.82,6.2-16.09.6-.64,1.59-.73,2.28-.19.14.11,3.41,2.66,5.89,6.84.48.81.21,1.85-.59,2.33-.81.48-1.85.21-2.33-.59-1.26-2.12-2.76-3.76-3.79-4.76-1.54,2.14-4.26,6.74-4.26,12.47,0,7.78,6.15,12.67,6.21,12.72.74.58.87,1.64.3,2.38-.34.43-.84.66-1.34.66Z"/><path class="cls-1" d="m39.3,47.27c-.9,0-1.66-.71-1.7-1.62-.04-.94.69-1.73,1.62-1.77.07,0,7.92-.46,12.39-6.83,3.3-4.69,3.83-10.33,3.86-13.18-1.6.35-4.04,1.03-6.47,2.31-.83.44-1.86.12-2.29-.72-.44-.83-.12-1.86.72-2.29,4.7-2.47,9.32-2.98,9.51-3,.45-.05.9.08,1.25.37.35.28.57.7.62,1.15.04.39.94,9.72-4.4,17.32-5.46,7.77-14.64,8.26-15.02,8.27-.03,0-.05,0-.08,0Z"/></g><path class="cls-1" d="m36.61,47.14c-.55,0-1.07-.26-1.4-.73-.11-.15-2.58-3.76-3.23-8.92-.12-.93.54-1.78,1.47-1.9.92-.11,1.78.54,1.9,1.47.34,2.69,1.28,4.9,1.95,6.19,2.22-1.17,6.73-4.13,8.48-9.65,1.74-5.5-.06-10.92-1.16-13.45-2.36,1.44-6.96,4.84-8.7,10.34-.28.89-1.24,1.39-2.13,1.11-.9-.28-1.39-1.24-1.11-2.13,2.84-8.97,11.61-13.03,11.98-13.2.79-.36,1.73-.06,2.17.69.21.35,5.04,8.71,2.2,17.69-2.86,9.05-11.47,12.28-11.83,12.42-.19.07-.39.1-.58.1Z"/></g><path class="cls-1" d="m38.64,77.28c-7.21,0-14.85-2.15-20.96-5.91-.8-.49-1.05-1.54-.56-2.34.49-.8,1.54-1.05,2.34-.56,5.6,3.44,12.59,5.41,19.18,5.41,19.43,0,35.24-15.81,35.24-35.24S58.07,3.4,38.64,3.4,3.4,19.21,3.4,38.64c0,8.31,2.95,16.38,8.29,22.71.61.72.51,1.79-.2,2.4-.72.6-1.79.51-2.4-.2C3.23,56.6,0,47.75,0,38.64,0,17.33,17.33,0,38.64,0s38.64,17.33,38.64,38.64-17.33,38.64-38.64,38.64Z"/><path class="cls-1" d="m31.04,76.26c-.55,0-1.14-.04-1.78-.13-.93-.13-1.58-.99-1.45-1.92.13-.93.98-1.57,1.92-1.45,2.44.34,4.27-.23,5.29-1.65,1-1.39.99-3.21.46-4.29-.45-.92-2.38-2.52-4.09-3.93-3.55-2.95-7.58-6.29-7.92-10.11-.24-2.7.79-4.95,2.9-6.33,3.32-2.18,8.49-1.74,11.57-.07,5.38,2.93,5.45,7.18,4.73,9.01-.34.88-1.33,1.3-2.2.96-.86-.34-1.3-1.31-.98-2.17.1-.29.75-2.68-3.18-4.82-2.12-1.15-5.96-1.47-8.09-.08-1.05.69-1.5,1.73-1.38,3.18.21,2.41,3.81,5.39,6.7,7.79,2.25,1.87,4.2,3.48,4.97,5.05,1.17,2.4.87,5.52-.76,7.78-.9,1.24-2.9,3.15-6.74,3.15Z"/></g></g></g></svg>